<svg id="Calque_1" data-name="Calque 1" xmlns="http://www.w3.org/2000/svg" xmlns:xlink="http://www.w3.org/1999/xlink" viewBox="0 0 6396.3 1170"><defs><style>.cls-1{fill:none;}.cls-2{clip-path:url(#clip-path);}.cls-3{fill:#f1f5f8;}.cls-4{fill:#ffa200;}</style><clipPath id="clip-path" transform="translate(6232.4 22.73)"><rect class="cls-1" x="-841.67" width="1004" height="1079"/></clipPath></defs><title>bg-login-page2</title><g class="cls-2"><g id="Mask_Group_1" data-name="Mask Group 1"><g id="Group_118" data-name="Group 118"><path id="Path_142" data-name="Path 142" class="cls-3" d="M134.4-7.33S-88.1,180.47,79.1,576c45,106.4,81.5,206,84.5,277,8.2,192.8-156,268.6-156,268.6l-653.5-26.8L-662.3-22.73Z" transform="translate(6232.4 22.73)"/><path id="Union_6" data-name="Union 6" class="cls-4" d="M-632.6,1081.47v-1.6H-6232.4V-.33H127.1s-187.8,197.4-91.6,488.8c49.2,148.9,96.3,256.3,104.7,362.1,8,100.9-58,201.7-168.6,254.3-65.9,31.3-144.6,42.4-223,42.4C-442.7,1147.27-632.6,1081.47-632.6,1081.47Z" transform="translate(6232.4 22.73)"/></g></g></g></svg>